<mxfile host="app.diagrams.net" modified="2021-08-03T03:33:26.667Z" agent="5.0 (Windows NT 10.0; Win64; x64) AppleWebKit/537.36 (KHTML, like Gecko) Chrome/92.0.4515.107 Safari/537.36" etag="39eLRPcdjUDyigRpUnx3" version="14.9.3" type="github">
  <diagram id="JeDrGCUuUXFOTuvssCg1" name="Page-1">
    <mxGraphModel dx="781" dy="476" grid="1" gridSize="10" guides="1" tooltips="1" connect="1" arrows="1" fold="1" page="1" pageScale="1" pageWidth="827" pageHeight="1169" math="0" shadow="0">
      <root>
        <mxCell id="0" />
        <mxCell id="1" parent="0" />
        <mxCell id="9Ihufr4luqPIJCAnLPml-1" value="&lt;font style=&quot;font-size: 14px&quot;&gt;context&lt;/font&gt;" style="rounded=0;whiteSpace=wrap;html=1;strokeColor=#d79b00;fillColor=none;strokeWidth=2;" vertex="1" parent="1">
          <mxGeometry x="110" y="20" width="80" height="40" as="geometry" />
        </mxCell>
        <mxCell id="9Ihufr4luqPIJCAnLPml-2" value="&lt;font style=&quot;font-size: 14px&quot;&gt;answer&lt;/font&gt;" style="rounded=0;whiteSpace=wrap;html=1;strokeColor=#82b366;fillColor=none;strokeWidth=2;" vertex="1" parent="1">
          <mxGeometry x="20" y="20" width="80" height="40" as="geometry" />
        </mxCell>
        <mxCell id="9Ihufr4luqPIJCAnLPml-34" value="&#xa;&#xa;&lt;font style=&quot;color: rgb(0, 0, 0); font-family: helvetica; font-size: 10px; font-style: normal; font-weight: 400; letter-spacing: normal; text-align: center; text-indent: 0px; text-transform: none; word-spacing: 0px; background-color: rgb(248, 249, 250);&quot;&gt;E&lt;/font&gt;&lt;sub style=&quot;color: rgb(0, 0, 0); font-family: helvetica; font-style: normal; font-weight: 400; letter-spacing: normal; text-align: center; text-indent: 0px; text-transform: none; word-spacing: 0px; background-color: rgb(248, 249, 250);&quot;&gt;[ANS]&lt;/sub&gt;&#xa;&#xa;" style="rounded=1;whiteSpace=wrap;html=1;strokeColor=#000000;strokeWidth=1;fillColor=none;" vertex="1" parent="1">
          <mxGeometry x="50" y="130" width="460" height="390" as="geometry" />
        </mxCell>
        <mxCell id="9Ihufr4luqPIJCAnLPml-35" value="choosing question-word based classifier&amp;nbsp;" style="text;html=1;strokeColor=none;fillColor=none;align=center;verticalAlign=middle;whiteSpace=wrap;rounded=0;" vertex="1" parent="1">
          <mxGeometry x="80" y="140" width="220" height="20" as="geometry" />
        </mxCell>
        <mxCell id="9Ihufr4luqPIJCAnLPml-55" value="" style="edgeStyle=orthogonalEdgeStyle;rounded=0;orthogonalLoop=1;jettySize=auto;html=1;" edge="1" parent="1" source="9Ihufr4luqPIJCAnLPml-42" target="9Ihufr4luqPIJCAnLPml-48">
          <mxGeometry relative="1" as="geometry">
            <Array as="points">
              <mxPoint x="140" y="430" />
              <mxPoint x="140" y="430" />
            </Array>
          </mxGeometry>
        </mxCell>
        <mxCell id="9Ihufr4luqPIJCAnLPml-42" value="[CLS]" style="rounded=0;whiteSpace=wrap;html=1;strokeWidth=2;strokeColor=#d79b00;fillColor=#ffe6cc;" vertex="1" parent="1">
          <mxGeometry x="120" y="460" width="40" height="20" as="geometry" />
        </mxCell>
        <mxCell id="9Ihufr4luqPIJCAnLPml-52" value="" style="edgeStyle=orthogonalEdgeStyle;rounded=0;orthogonalLoop=1;jettySize=auto;html=1;" edge="1" parent="1" source="9Ihufr4luqPIJCAnLPml-44" target="9Ihufr4luqPIJCAnLPml-48">
          <mxGeometry relative="1" as="geometry">
            <Array as="points">
              <mxPoint x="190" y="440" />
              <mxPoint x="190" y="440" />
            </Array>
          </mxGeometry>
        </mxCell>
        <mxCell id="9Ihufr4luqPIJCAnLPml-44" value="answer" style="rounded=0;whiteSpace=wrap;html=1;strokeColor=#6c8ebf;strokeWidth=2;fillColor=#dae8fc;" vertex="1" parent="1">
          <mxGeometry x="160" y="460" width="60" height="20" as="geometry" />
        </mxCell>
        <mxCell id="9Ihufr4luqPIJCAnLPml-51" value="" style="edgeStyle=orthogonalEdgeStyle;rounded=0;orthogonalLoop=1;jettySize=auto;html=1;" edge="1" parent="1" source="9Ihufr4luqPIJCAnLPml-46" target="9Ihufr4luqPIJCAnLPml-48">
          <mxGeometry relative="1" as="geometry">
            <Array as="points">
              <mxPoint x="245" y="450" />
              <mxPoint x="245" y="450" />
            </Array>
          </mxGeometry>
        </mxCell>
        <mxCell id="9Ihufr4luqPIJCAnLPml-46" value="[SEP]" style="rounded=0;whiteSpace=wrap;html=1;strokeWidth=2;strokeColor=#d79b00;fillColor=#ffe6cc;" vertex="1" parent="1">
          <mxGeometry x="220" y="460" width="40" height="20" as="geometry" />
        </mxCell>
        <mxCell id="9Ihufr4luqPIJCAnLPml-53" value="" style="edgeStyle=orthogonalEdgeStyle;rounded=0;orthogonalLoop=1;jettySize=auto;html=1;" edge="1" parent="1" source="9Ihufr4luqPIJCAnLPml-47" target="9Ihufr4luqPIJCAnLPml-48">
          <mxGeometry relative="1" as="geometry">
            <Array as="points">
              <mxPoint x="335" y="420" />
              <mxPoint x="335" y="420" />
            </Array>
          </mxGeometry>
        </mxCell>
        <mxCell id="9Ihufr4luqPIJCAnLPml-47" value="context" style="rounded=0;whiteSpace=wrap;html=1;strokeColor=#6c8ebf;strokeWidth=2;fillColor=#dae8fc;" vertex="1" parent="1">
          <mxGeometry x="260" y="460" width="120" height="20" as="geometry" />
        </mxCell>
        <mxCell id="9Ihufr4luqPIJCAnLPml-48" value="&lt;font style=&quot;font-size: 15px&quot;&gt;BERT&lt;/font&gt;" style="rounded=1;whiteSpace=wrap;html=1;strokeColor=#666666;strokeWidth=2;fillColor=#f5f5f5;fontColor=#333333;" vertex="1" parent="1">
          <mxGeometry x="110" y="270" width="320" height="150" as="geometry" />
        </mxCell>
        <mxCell id="9Ihufr4luqPIJCAnLPml-56" value="&lt;span style=&quot;font-size: 10px&quot;&gt;E[CLS]&lt;/span&gt;" style="rounded=0;whiteSpace=wrap;html=1;strokeWidth=1;" vertex="1" parent="1">
          <mxGeometry x="120" y="390" width="40" height="20" as="geometry" />
        </mxCell>
        <mxCell id="9Ihufr4luqPIJCAnLPml-57" value="&lt;span style=&quot;font-size: 10px&quot;&gt;E[answer]&lt;/span&gt;" style="rounded=0;whiteSpace=wrap;html=1;strokeWidth=1;fontSize=9;" vertex="1" parent="1">
          <mxGeometry x="160" y="390" width="60" height="20" as="geometry" />
        </mxCell>
        <mxCell id="9Ihufr4luqPIJCAnLPml-60" value="&lt;font style=&quot;font-size: 10px&quot;&gt;&lt;font style=&quot;font-size: 10px&quot;&gt;E&lt;/font&gt;&lt;sub style=&quot;font-size: 10px&quot;&gt;[SEP]&lt;/sub&gt;&lt;/font&gt;" style="rounded=0;whiteSpace=wrap;html=1;strokeWidth=1;" vertex="1" parent="1">
          <mxGeometry x="220" y="390" width="40" height="20" as="geometry" />
        </mxCell>
        <mxCell id="9Ihufr4luqPIJCAnLPml-61" value="E[context]" style="rounded=0;whiteSpace=wrap;html=1;strokeWidth=1;" vertex="1" parent="1">
          <mxGeometry x="260" y="390" width="120" height="20" as="geometry" />
        </mxCell>
        <mxCell id="9Ihufr4luqPIJCAnLPml-68" value="" style="edgeStyle=orthogonalEdgeStyle;rounded=0;orthogonalLoop=1;jettySize=auto;html=1;fontSize=9;endSize=6;entryX=0.909;entryY=1.004;entryDx=0;entryDy=0;entryPerimeter=0;" edge="1" parent="1" source="9Ihufr4luqPIJCAnLPml-62" target="9Ihufr4luqPIJCAnLPml-48">
          <mxGeometry relative="1" as="geometry">
            <Array as="points" />
          </mxGeometry>
        </mxCell>
        <mxCell id="9Ihufr4luqPIJCAnLPml-62" value="[SEP]" style="rounded=0;whiteSpace=wrap;html=1;strokeWidth=2;strokeColor=#d79b00;fillColor=#ffe6cc;" vertex="1" parent="1">
          <mxGeometry x="380" y="460" width="40" height="20" as="geometry" />
        </mxCell>
        <mxCell id="9Ihufr4luqPIJCAnLPml-63" value="&lt;span style=&quot;font-size: 10px&quot;&gt;E[SEP]&lt;/span&gt;" style="rounded=0;whiteSpace=wrap;html=1;strokeWidth=1;" vertex="1" parent="1">
          <mxGeometry x="380" y="390" width="40" height="20" as="geometry" />
        </mxCell>
        <mxCell id="9Ihufr4luqPIJCAnLPml-76" value="" style="edgeStyle=orthogonalEdgeStyle;rounded=0;orthogonalLoop=1;jettySize=auto;html=1;fontSize=9;endSize=6;" edge="1" parent="1" source="9Ihufr4luqPIJCAnLPml-69" target="9Ihufr4luqPIJCAnLPml-75">
          <mxGeometry relative="1" as="geometry" />
        </mxCell>
        <mxCell id="9Ihufr4luqPIJCAnLPml-69" value="&lt;span style=&quot;font-size: 10px&quot;&gt;T[CLS]&lt;/span&gt;" style="rounded=0;whiteSpace=wrap;html=1;strokeWidth=1;" vertex="1" parent="1">
          <mxGeometry x="120" y="280" width="40" height="20" as="geometry" />
        </mxCell>
        <mxCell id="9Ihufr4luqPIJCAnLPml-70" value="&lt;span style=&quot;font-size: 10px&quot;&gt;T[answer]&lt;/span&gt;" style="rounded=0;whiteSpace=wrap;html=1;strokeWidth=1;fontSize=9;" vertex="1" parent="1">
          <mxGeometry x="160" y="280" width="60" height="20" as="geometry" />
        </mxCell>
        <mxCell id="9Ihufr4luqPIJCAnLPml-71" value="&lt;font style=&quot;font-size: 10px&quot;&gt;&lt;sub style=&quot;font-size: 10px&quot;&gt;T[SEP]&lt;/sub&gt;&lt;/font&gt;" style="rounded=0;whiteSpace=wrap;html=1;strokeWidth=1;" vertex="1" parent="1">
          <mxGeometry x="220" y="280" width="40" height="20" as="geometry" />
        </mxCell>
        <mxCell id="9Ihufr4luqPIJCAnLPml-72" value="T[context]" style="rounded=0;whiteSpace=wrap;html=1;strokeWidth=1;" vertex="1" parent="1">
          <mxGeometry x="260" y="280" width="120" height="20" as="geometry" />
        </mxCell>
        <mxCell id="9Ihufr4luqPIJCAnLPml-73" value="&lt;span style=&quot;font-size: 10px&quot;&gt;T[SEP]&lt;/span&gt;" style="rounded=0;whiteSpace=wrap;html=1;strokeWidth=1;" vertex="1" parent="1">
          <mxGeometry x="380" y="280" width="40" height="20" as="geometry" />
        </mxCell>
        <mxCell id="9Ihufr4luqPIJCAnLPml-80" value="" style="edgeStyle=orthogonalEdgeStyle;rounded=0;orthogonalLoop=1;jettySize=auto;html=1;fontSize=9;endSize=6;" edge="1" parent="1" source="9Ihufr4luqPIJCAnLPml-75" target="9Ihufr4luqPIJCAnLPml-79">
          <mxGeometry relative="1" as="geometry" />
        </mxCell>
        <mxCell id="9Ihufr4luqPIJCAnLPml-75" value="Softmax&lt;br&gt;Classifier" style="whiteSpace=wrap;html=1;rounded=0;strokeWidth=1;fillColor=#d5e8d4;strokeColor=#82b366;" vertex="1" parent="1">
          <mxGeometry x="100" y="200" width="80" height="40" as="geometry" />
        </mxCell>
        <mxCell id="9Ihufr4luqPIJCAnLPml-82" value="" style="edgeStyle=orthogonalEdgeStyle;rounded=0;orthogonalLoop=1;jettySize=auto;html=1;fontSize=9;endSize=6;" edge="1" parent="1" source="9Ihufr4luqPIJCAnLPml-79" target="9Ihufr4luqPIJCAnLPml-81">
          <mxGeometry relative="1" as="geometry" />
        </mxCell>
        <mxCell id="9Ihufr4luqPIJCAnLPml-79" value="label" style="rounded=0;whiteSpace=wrap;html=1;fontSize=9;strokeWidth=1;" vertex="1" parent="1">
          <mxGeometry x="240" y="205" width="80" height="30" as="geometry" />
        </mxCell>
        <mxCell id="9Ihufr4luqPIJCAnLPml-81" value="question-word" style="whiteSpace=wrap;html=1;rounded=0;fontSize=9;strokeWidth=1;" vertex="1" parent="1">
          <mxGeometry x="380" y="200" width="90" height="40" as="geometry" />
        </mxCell>
        <mxCell id="9Ihufr4luqPIJCAnLPml-83" value="answer" style="rounded=1;whiteSpace=wrap;html=1;strokeColor=#9673a6;strokeWidth=2;fillColor=none;" vertex="1" parent="1">
          <mxGeometry x="280" y="580" width="100" height="30" as="geometry" />
        </mxCell>
        <mxCell id="9Ihufr4luqPIJCAnLPml-85" value="&lt;font style=&quot;font-size: 17px&quot;&gt;context&lt;/font&gt;" style="rounded=1;whiteSpace=wrap;html=1;strokeColor=#b85450;strokeWidth=2;fillColor=none;" vertex="1" parent="1">
          <mxGeometry x="140" y="540" width="130" height="70" as="geometry" />
        </mxCell>
        <mxCell id="9Ihufr4luqPIJCAnLPml-87" value="answer-type-list" style="rounded=1;whiteSpace=wrap;html=1;strokeColor=#82b366;strokeWidth=2;fillColor=none;" vertex="1" parent="1">
          <mxGeometry x="280" y="540" width="100" height="30" as="geometry" />
        </mxCell>
      </root>
    </mxGraphModel>
  </diagram>
</mxfile>
